<svg xmlns="http://www.w3.org/2000/svg" viewBox="0 0 110 31.24"><defs><style>.cls-1{fill:#fff;}</style></defs><g id="Layer_2" data-name="Layer 2"><g id="Layer_1-2" data-name="Layer 1"><path class="cls-1" d="M2.45,20.05a3,3,0,0,1-1-.15,2.57,2.57,0,0,1-.73-.41A2.19,2.19,0,0,1,0,18.26l.88-.44a1.38,1.38,0,0,0,.15.41,1.69,1.69,0,0,0,.33.44A2.37,2.37,0,0,0,1.9,19a2,2,0,0,0,.77.13H4.36l.26,0a1,1,0,0,0,.51-.21.93.93,0,0,0,.31-.61H3.54l-.42,0a1.64,1.64,0,0,1-.44-.09,1.42,1.42,0,0,1-.41-.2,1.44,1.44,0,0,1-.35-.38,4,4,0,0,1-.41-2.07,5.52,5.52,0,0,1,.1-1.13,1.92,1.92,0,0,1,.47-.89,1.66,1.66,0,0,1,.39-.32A1.9,1.9,0,0,1,2.89,13a3.07,3.07,0,0,1,.42-.07H5.45a3.44,3.44,0,0,1,.46,0,.84.84,0,0,1,.41.18.79.79,0,0,1,.26.39,1.43,1.43,0,0,1,.06.39v3.46h.63v.91H6.61a3.65,3.65,0,0,1-.13.61,1.7,1.7,0,0,1-.28.51,1.61,1.61,0,0,1-.43.35,2.64,2.64,0,0,1-.51.19,3,3,0,0,1-.48.08,2.62,2.62,0,0,1-.37,0Zm.24-7.92v-.94H3.87v.94Zm2.76,2.13a1,1,0,0,0,0-.19.35.35,0,0,0-.13-.15.46.46,0,0,0-.16-.07H4a1.53,1.53,0,0,0-.54.09.86.86,0,0,0-.38.24,1,1,0,0,0-.19.35,2.13,2.13,0,0,0-.1.42,2.8,2.8,0,0,0,0,.4c0,.12,0,.21,0,.28a5.09,5.09,0,0,0,0,.6,3.34,3.34,0,0,0,.08.43,1.52,1.52,0,0,0,.09.26.76.76,0,0,0,.1.15.8.8,0,0,0,.48.28l.27,0H5.45ZM4.28,12.13v-.94H5.46v.94Z"/><path class="cls-1" d="M7.17,18.28v-.91H8.54a1.48,1.48,0,0,0,.52-.07.68.68,0,0,0,.33-.25.86.86,0,0,0,.18-.44,2.78,2.78,0,0,0,0-.51V12.93h1.18v3.53a2.49,2.49,0,0,1,0,.49,2.9,2.9,0,0,1-.11.38,1.69,1.69,0,0,1-.17.3l-.2.22a1.46,1.46,0,0,1-.34.23,1.74,1.74,0,0,1-.36.13,2.63,2.63,0,0,1-.39.06h-2Zm.69,1.77v-.94H9v.94Zm1.59,0v-.94h1.18v.94Z"/><path class="cls-1" d="M11.9,19.14h2.48l.26,0a.9.9,0,0,0,.5-.21.94.94,0,0,0,.32-.61h-1.9l-.42,0a1.64,1.64,0,0,1-.44-.09,1.42,1.42,0,0,1-.41-.2,1.29,1.29,0,0,1-.35-.38,4,4,0,0,1-.41-2.07,5.52,5.52,0,0,1,.1-1.13,2,2,0,0,1,.46-.89,1.94,1.94,0,0,1,.4-.32A1.65,1.65,0,0,1,12.9,13a3.49,3.49,0,0,1,.43-.07h2.14a3.44,3.44,0,0,1,.46,0,.88.88,0,0,1,.41.18.71.71,0,0,1,.25.39,1.43,1.43,0,0,1,.06.39v3.46h.69v.91h-.72a2.87,2.87,0,0,1-.12.61,2,2,0,0,1-.28.51,1.66,1.66,0,0,1-.44.35,2.34,2.34,0,0,1-.5.19,3,3,0,0,1-.48.08,2.7,2.7,0,0,1-.37,0H11.9Zm3.57-4.88a.54.54,0,0,0,0-.19.27.27,0,0,0-.12-.15.71.71,0,0,0-.16-.07H14a1.51,1.51,0,0,0-.53.09.84.84,0,0,0-.57.59,2.13,2.13,0,0,0-.1.42,2.8,2.8,0,0,0,0,.4c0,.12,0,.21,0,.28a5.09,5.09,0,0,0,0,.6,3.51,3.51,0,0,0,.07.43,1.42,1.42,0,0,0,.1.26.76.76,0,0,0,.1.15.77.77,0,0,0,.48.28l.27,0h1.67Z"/><path class="cls-1" d="M17.21,18.29v-.91h.87V12.94h1.18v4.44h2V12.94h1.19v4.44h1.27l.19,0a.73.73,0,0,0,.19-.07.52.52,0,0,0,.16-.14.66.66,0,0,0,.12-.17,1.59,1.59,0,0,0,.07-.2.75.75,0,0,0,0-.2,1.28,1.28,0,0,0,0-.19V12.94h1.18v3.61a2,2,0,0,1-.16.83h.76v.91Z"/><path class="cls-1" d="M26.22,18.28v-.91h.12a1.54,1.54,0,0,0,.53-.07.66.66,0,0,0,.32-.25,1,1,0,0,0,.18-.42,3.52,3.52,0,0,0,.05-.49.13.13,0,0,1,0-.06V16h0V12.93H28.6V16l0,.73a.71.71,0,0,0,.19.34.81.81,0,0,0,.29.19,1,1,0,0,0,.34.09l.35,0h.13v.91h-.49l-.35,0a1.49,1.49,0,0,1-.36-.05,1.27,1.27,0,0,1-.36-.12,1.19,1.19,0,0,1-.33-.22,1.19,1.19,0,0,1-.33.22,2.06,2.06,0,0,1-.35.12,2.2,2.2,0,0,1-.37.05h-.76Zm.38-6.15v-.94h1.18v.94Zm1.59,0v-.94h1.18v.94Z"/><path class="cls-1" d="M29.81,18.28v-.91h.58a1.54,1.54,0,0,0,.53-.07.73.73,0,0,0,.33-.25,1.08,1.08,0,0,0,.18-.44,4.06,4.06,0,0,0,0-.51V11.21h1.18v5.25a2.46,2.46,0,0,1,0,.49,1.41,1.41,0,0,1-.11.38,1.24,1.24,0,0,1-.17.3,2.09,2.09,0,0,1-.2.22,1.41,1.41,0,0,1-.33.23,1.63,1.63,0,0,1-.37.13,2.32,2.32,0,0,1-.38.06H29.81Z"/><path class="cls-1" d="M33.52,11.21h1.19v7.08H33.52Z"/><path class="cls-1" d="M38.59,15.69c0,.23,0,.44,0,.65a1.32,1.32,0,0,0,.18.56.79.79,0,0,0,.18.22.87.87,0,0,0,.25.15,1,1,0,0,0,.33.08,2.81,2.81,0,0,0,.43,0h2.36a2.81,2.81,0,0,0,.43,0,1.14,1.14,0,0,0,.33-.08.87.87,0,0,0,.25-.15.79.79,0,0,0,.18-.22,1.36,1.36,0,0,0,.18-.57c0-.2,0-.43,0-.66V12.93H45v2.76c0,.18,0,.35,0,.51a3.5,3.5,0,0,1-.06.48,2.15,2.15,0,0,1-.14.45,1.82,1.82,0,0,1-.64.84,1.82,1.82,0,0,1-.45.21,1.8,1.8,0,0,1-.45.09l-.41,0H39.53l-.41,0a1.89,1.89,0,0,1-.45-.09,1.82,1.82,0,0,1-.45-.21,1.6,1.6,0,0,1-.41-.41,1.76,1.76,0,0,1-.24-.42,2.52,2.52,0,0,1-.13-.47,3.86,3.86,0,0,1-.06-.49c0-.17,0-.34,0-.51V14.09h1.22Zm1.49-3.56v-.94h1.18v.94Zm1.59,0v-.94h1.18v.94Z"/><path class="cls-1" d="M47.63,18.28h-.41a2.32,2.32,0,0,1-.38-.06,1.63,1.63,0,0,1-.37-.13,1.41,1.41,0,0,1-.33-.23,2.09,2.09,0,0,1-.2-.22,1.24,1.24,0,0,1-.17-.3,1.89,1.89,0,0,1-.12-.38,3.6,3.6,0,0,1,0-.49V11.21h1.18V16.1a4.06,4.06,0,0,0,0,.51,1.08,1.08,0,0,0,.18.44.73.73,0,0,0,.33.25,1.54,1.54,0,0,0,.53.07h.58v.91Z"/><path class="cls-1" d="M52.66,18.35l-.53,0a3.7,3.7,0,0,1-.57-.07,3.74,3.74,0,0,1-.57-.17,1.73,1.73,0,0,1-.49-.32l0,0a1.39,1.39,0,0,1-.36.29,2.37,2.37,0,0,1-.41.17,3,3,0,0,1-.43.08l-.4,0h-.53v-.91h.47a1.7,1.7,0,0,0,.31-.06,1.14,1.14,0,0,0,.3-.17.88.88,0,0,0,.24-.31,2.28,2.28,0,0,0,.1-.29,3,3,0,0,0,.07-.57v-.34a5,5,0,0,1,0-.52,3.13,3.13,0,0,1,.09-.59,2.6,2.6,0,0,1,.21-.59,1.48,1.48,0,0,1,.37-.49,1.76,1.76,0,0,1,.49-.33,2.84,2.84,0,0,1,.57-.16,3.7,3.7,0,0,1,.57-.07h1a4,4,0,0,1,.58.07,2.75,2.75,0,0,1,.56.16,1.67,1.67,0,0,1,.5.33,1.48,1.48,0,0,1,.37.49,3.19,3.19,0,0,1,.21.59c0,.2.07.39.09.58s0,.35,0,.49a4.51,4.51,0,0,1-.11,1.05,2.88,2.88,0,0,1-.27.74h.94v.91H54.22Zm-1.29-4.14a1,1,0,0,0-.22.4,1.87,1.87,0,0,0-.09.46,3.77,3.77,0,0,0,0,.47V16a2.34,2.34,0,0,0,.08.53,1.19,1.19,0,0,0,.26.48,1.09,1.09,0,0,0,.29.24,1.27,1.27,0,0,0,.32.13,1.91,1.91,0,0,0,.33.06l.34,0,.34,0a1.91,1.91,0,0,0,.33-.06,1.44,1.44,0,0,0,.32-.13,1.23,1.23,0,0,0,.28-.24,1.21,1.21,0,0,0,.21-.31,1.91,1.91,0,0,0,.1-.34,1.47,1.47,0,0,0,0-.36c0-.13,0-.25,0-.36V15.3a2.64,2.64,0,0,0,0-.28,2.5,2.5,0,0,0-.05-.29,1.36,1.36,0,0,0-.11-.28.81.81,0,0,0-.17-.24.89.89,0,0,0-.29-.23,1.27,1.27,0,0,0-.32-.13,1.86,1.86,0,0,0-.34-.06h-.65a2.14,2.14,0,0,0-.35.06,1.4,1.4,0,0,0-.34.13A.77.77,0,0,0,51.37,14.21Z"/><path class="cls-1" d="M58,17.38h2V12.94h1.19v4.44h1.27l.19,0a.89.89,0,0,0,.19-.07.52.52,0,0,0,.16-.14.66.66,0,0,0,.12-.17,1.59,1.59,0,0,0,.07-.2.75.75,0,0,0,0-.2,1.28,1.28,0,0,0,0-.19V12.94h1.18v3.61a2,2,0,0,1-.13.75,1.39,1.39,0,0,1-.36.57,1,1,0,0,1-.32.21,1.74,1.74,0,0,1-.36.13,2.25,2.25,0,0,1-.36.06,1.83,1.83,0,0,1-.32,0H56v-.91h.87V12.94H58Z"/><path class="cls-1" d="M98.85.13A17.28,17.28,0,0,1,95.53,2l1.41.45c-3.23,10.91-20.76,18.5-26,11.28h0a2.39,2.39,0,0,1-.59-.95c.09.6.2,1.4.29,2a6.75,6.75,0,0,0,.51,1.61c3.71,6.94,22.9,2.4,28.5-11.94.3.46.66,1.11.94,1.58A14.42,14.42,0,0,0,98.85.13Z"/><path class="cls-1" d="M109.62,14.25c0-.56-.05-1.31-.1-1.87C105,25,90.26,32.67,82.1,29.4l-.52-.25a21.15,21.15,0,0,1-2.9-1.74c8,5,25.34-3.48,29.68-17.38l-.84-.46a10.08,10.08,0,0,0,2.22-2.79A22.11,22.11,0,0,1,109.62,14.25Z"/><path class="cls-1" d="M100.8,14.78c-.1-.55-.22-1.27-.33-1.82C91,24.88,76.38,26.73,73,21.1c-.23-.44-.56-1-.78-1.47-.27-.63-.63-1.47-.87-2.12,3.11,7.07,18.52,4.42,27.23-7.14l-1.31-.71a22.06,22.06,0,0,0,4.66-2A25.59,25.59,0,0,1,100.8,14.78Z"/><path class="cls-1" d="M104.71,16.77c0-.54-.1-1.27-.16-1.82C95.77,27.42,81.73,30.24,76.92,26c-.66-.65-1.52-1.55-2.13-2.25l-.49-.64c5.12,5.84,20.52,1.58,28.65-10.62l-1.21-.59A21.64,21.64,0,0,0,106,9.24,25.57,25.57,0,0,1,104.71,16.77Z"/><path class="cls-1" d="M103.34,26.06c.15-.31.36-.72.5-1-7.22,6.17-13,6.38-15.1,6.18l-.3,0a20.74,20.74,0,0,1-3.15-.61l-.78-.23c5.56,1.42,12.85-1.2,19-6.85l-.79-.37a20,20,0,0,0,4.3-2.49A24.87,24.87,0,0,1,103.34,26.06Z"/><path class="cls-1" d="M93.9,0a14,14,0,0,1-3.35,1c.39.2.91.44,1.3.62-.08.2-.19.47-.28.66C87.5,10.91,73.63,14.79,71,8c0,0-.3-.82-.38-1l-.11.62a16.74,16.74,0,0,0-.2,2.49,4.84,4.84,0,0,0,.29,1.08c2.34,6.24,17.83,4,23.83-7.46.29.45.63,1.07.9,1.53A11.67,11.67,0,0,0,93.9,0Z"/></g></g></svg>