<svg id="Layer_1" data-name="Layer 1" xmlns="http://www.w3.org/2000/svg" viewBox="0 0 44.37 51.23"><defs><style>.cls-1{fill:#184153;}.cls-2{fill:#16e2a9;}</style></defs><polygon class="cls-1" points="0 12.81 0 38.42 22.18 51.23 44.37 38.42 44.37 12.81 22.18 0 0 12.81"/><path class="cls-2" d="M45.06,20.05V46.67a.37.37,0,0,1-.21.34l-6.26,2.88a.39.39,0,0,1-.55-.35V44.46a1.2,1.2,0,0,1,1-1.18,1.13,1.13,0,0,1,1.23,1.13V46a.41.41,0,0,0,.59.38l1.41-.64a.68.68,0,0,0,.4-.64l-.1-24.22a.69.69,0,0,0-.36-.6l-.83-.44a.53.53,0,0,0-.78.47l-.1,18.26a.55.55,0,0,1-.32.5L28,45a.72.72,0,0,1-.52,0,1.15,1.15,0,0,1-.19-2.14l10.46-4.84a.59.59,0,0,0,.33-.53V17.18a1.08,1.08,0,0,1,1.65-.92l4.94,3A.91.91,0,0,1,45.06,20.05Z" transform="translate(-9.11 -6.3)"/><path class="cls-2" d="M28.37,18.55V37c0,.44.47.19.86,0l4.17-2a1,1,0,0,1,1.18.28h0c.28.34.31,1-.06,1.22l-7.23,3.56a.84.84,0,0,1-1.2-.67V18.56a1.14,1.14,0,0,1,1.13-1.13h0A1.14,1.14,0,0,1,28.37,18.55Z" transform="translate(-9.11 -6.3)"/><path class="cls-2" d="M22.48,16l-4.54,2.25a1.42,1.42,0,0,0-.79,1.28V42.2a1.11,1.11,0,0,0,1,1.13,1.09,1.09,0,0,0,1.2-1.08l.09-22.4a.53.53,0,0,1,.33-.48l.93-.39a.52.52,0,0,1,.73.48V45.73a1,1,0,0,0,.42.79l4.74,3.19a1.31,1.31,0,0,0,1.31.08L32,47.64a1.17,1.17,0,0,0,.34-1.82,1.21,1.21,0,0,0-1.48-.24l-3.2,1.7a1,1,0,0,1-1,0l-2.18-1.39a1,1,0,0,1-.45-.81L24,17A1.08,1.08,0,0,0,22.48,16Z" transform="translate(-9.11 -6.3)"/></svg>