<svg width="598" height="493" viewBox="0 0 598 493" fill="none" xmlns="http://www.w3.org/2000/svg">
<path d="M150.983 355.769C150.983 355.769 197.112 354.678 207.833 321.267C218.554 287.855 208.899 244 208.899 244" stroke="#3A76BB" stroke-width="8"/>
<path d="M95.2436 362.571L110.019 362.571L110.019 348.708L95.2435 348.708C94.2012 348.707 93.2022 348.291 92.4658 347.554C91.7293 346.816 91.3157 345.817 91.3156 344.775C91.3156 343.732 91.7293 342.733 92.4657 341.995C93.2022 341.258 94.2012 340.843 95.2434 340.841L110.019 340.841L110.019 335.175C110.019 334.012 110.481 332.897 111.303 332.075C112.126 331.252 113.241 330.79 114.404 330.79C115.567 330.79 116.682 331.252 117.505 332.075C118.327 332.897 118.789 334.012 118.789 335.175V336.708C135.671 337.261 141.049 341.236 142.754 346.869L151.511 346.869C152.145 346.869 152.772 346.994 153.357 347.236C153.942 347.479 154.473 347.834 154.921 348.282C155.369 348.729 155.724 349.261 155.967 349.846C156.209 350.431 156.334 351.058 156.334 351.692L156.334 359.588C156.334 360.221 156.209 360.848 155.967 361.433C155.724 362.018 155.369 362.55 154.921 362.998C154.474 363.445 153.942 363.801 153.357 364.043C152.772 364.285 152.145 364.41 151.511 364.41L142.754 364.41C141.049 370.043 135.671 374.018 118.789 374.57L118.789 376.104C118.789 377.267 118.327 378.382 117.505 379.205C116.683 380.027 115.567 380.489 114.404 380.489C113.241 380.489 112.126 380.027 111.303 379.205C110.481 378.382 110.019 377.267 110.019 376.104L110.019 370.438L95.2436 370.438C94.2004 370.438 93.1999 370.023 92.4622 369.286C91.7245 368.548 91.3101 367.547 91.3101 366.504C91.3101 365.461 91.7245 364.46 92.4622 363.723C93.1998 362.985 94.2003 362.571 95.2436 362.571Z" fill="#3A76BB"/>
<path d="M40.9456 359.588L40.9455 351.692C40.9455 351.058 41.0703 350.431 41.3126 349.846C41.555 349.261 41.9102 348.729 42.358 348.282C42.8058 347.834 43.3374 347.479 43.9225 347.236C44.5075 346.994 45.1346 346.869 45.7679 346.869L54.5249 346.869C56.2301 341.236 61.6083 337.262 78.49 336.709L78.49 335.175C78.49 334.012 78.952 332.897 79.7744 332.074C80.5968 331.252 81.7122 330.79 82.8752 330.79C84.0383 330.79 85.1537 331.252 85.976 332.074C86.7984 332.897 87.2604 334.012 87.2604 335.175L87.2606 376.104C87.2606 377.267 86.7985 378.382 85.9761 379.205C85.1538 380.027 84.0384 380.489 82.8753 380.489C81.7123 380.489 80.5969 380.027 79.7745 379.205C78.9521 378.382 78.4901 377.267 78.4901 376.104V374.571C61.6084 374.018 56.2302 370.043 54.5249 364.41L45.768 364.41C44.489 364.41 43.2624 363.902 42.3581 362.998C41.4537 362.093 40.9456 360.867 40.9456 359.588Z" fill="#D2DBE5"/>
<path d="M136.618 343C139.016 342.996 140.996 344.688 141 347.148V363.844C140.996 366.305 139.016 367.996 136.618 368H120.31C118.05 367.996 116.004 366.323 116 363.987V347.005C116.003 345.39 117.098 343.911 118.586 343.311C119 343.145 119.304 343.093 119.736 343H136.618ZM125.986 345.643L125.267 346.291L123.974 347.575L122.394 349.083C122.038 349.438 120.76 350.553 120.599 350.874C120.512 351.048 120.527 351.258 120.526 351.448V354.959C120.526 355.108 120.517 355.321 120.569 355.46C120.687 355.782 121.397 356.382 121.675 356.627L124.046 358.971L125.698 360.619C125.876 360.795 126.134 361.135 126.414 360.996C126.555 360.926 126.805 360.606 126.926 360.476L127.997 359.401C128.136 359.26 128.388 359.051 128.332 358.828C128.282 358.626 127.473 357.875 127.279 357.682L124.549 354.887L123.471 353.74C123.333 353.599 123.07 353.391 123.126 353.167C123.156 353.05 123.357 352.835 123.441 352.737L124.333 351.806L127.279 348.796C127.54 348.536 128.35 347.796 128.457 347.506C128.509 347.367 128.5 347.155 128.5 347.005V345.572L128.572 344.497V343.207C127.96 343.643 126.587 345.057 125.986 345.643ZM129.649 366.641L131.302 365.062L132.164 364.267L133.601 362.844L134.606 361.909L135.612 360.913C136.18 360.384 136.473 360.368 136.474 359.545V356.105C136.474 355.955 136.483 355.743 136.431 355.604C136.329 355.328 135.703 354.762 135.468 354.529L131.302 350.373C131.12 350.193 130.871 349.859 130.583 349.996C130.338 350.113 129.356 351.236 129.075 351.519C128.925 351.67 128.608 351.926 128.668 352.164C128.72 352.373 129.588 353.174 129.792 353.382L130.512 354.17L132.543 356.248L133.6 357.323C133.725 357.453 133.927 357.624 133.874 357.825C133.835 357.97 133.568 358.215 133.457 358.326L132.52 359.33L130.44 361.408L129.79 362.124L128.615 363.342C128.465 363.579 128.499 364.043 128.443 364.346V367.785C128.883 367.46 129.246 367.025 129.649 366.641Z" fill="#3A76BB"/>
<path d="M125.986 345.643L125.267 346.291L123.974 347.575L122.394 349.083C122.038 349.438 120.76 350.553 120.599 350.874C120.512 351.048 120.527 351.258 120.526 351.448V354.959C120.526 355.108 120.517 355.321 120.569 355.46C120.687 355.782 121.397 356.382 121.675 356.627L124.046 358.971L125.698 360.619C125.876 360.795 126.134 361.135 126.414 360.996C126.555 360.926 126.805 360.606 126.926 360.476L127.997 359.401C128.136 359.26 128.388 359.051 128.332 358.828C128.282 358.626 127.473 357.875 127.279 357.682L124.549 354.887L123.471 353.74C123.333 353.599 123.07 353.391 123.126 353.167C123.156 353.05 123.357 352.835 123.441 352.737L124.333 351.806L127.279 348.796C127.54 348.536 128.35 347.796 128.457 347.506C128.509 347.367 128.5 347.155 128.5 347.005V345.572L128.572 344.497V343.207C127.96 343.643 126.587 345.057 125.986 345.643Z" fill="white"/>
<path d="M129.649 366.641L131.302 365.062L132.164 364.267L133.601 362.844L134.606 361.909L135.612 360.913C136.18 360.384 136.473 360.368 136.474 359.545V356.105C136.474 355.955 136.483 355.743 136.431 355.604C136.329 355.328 135.703 354.762 135.468 354.529L131.302 350.373C131.12 350.193 130.871 349.859 130.583 349.996C130.338 350.113 129.356 351.236 129.075 351.519C128.925 351.67 128.608 351.926 128.668 352.164C128.72 352.373 129.588 353.174 129.792 353.382L130.512 354.17L132.543 356.248L133.6 357.323C133.725 357.453 133.927 357.624 133.874 357.825C133.835 357.97 133.568 358.215 133.457 358.326L132.52 359.33L130.44 361.408L129.79 362.124L128.615 363.342C128.465 363.579 128.499 364.043 128.443 364.346V367.785C128.883 367.46 129.246 367.025 129.649 366.641Z" fill="white"/>
<path d="M44 356L12 356" stroke="#D2DBE5" stroke-width="8" stroke-linecap="round"/>
<path d="M319.957 44H325.958C327.039 44 327.915 45.081 327.915 45.957V51.9582C327.915 53.0392 327.039 53.9152 325.958 53.9152H319.957C318.876 53.9152 318 52.8342 318 51.9582V45.957C318 44.876 318.876 44 319.957 44Z" fill="#D2DBE5"/>
<path d="M358.57 44H364.572C365.653 44 366.529 45.081 366.529 45.957V51.9582C366.529 53.0392 365.653 53.9152 364.572 53.9152H358.57C357.489 53.9152 356.613 52.8342 356.613 51.9582V45.957C356.613 44.876 357.489 44 358.57 44Z" fill="#D2DBE5"/>
<path d="M397.189 44H403.19C404.271 44 405.147 45.081 405.147 45.957V51.9582C405.147 53.0392 404.271 53.9152 403.19 53.9152H397.189C396.108 53.9152 395.232 52.8342 395.232 51.9582V45.957C395.232 44.876 396.108 44 397.189 44Z" fill="#D2DBE5"/>
<path d="M435.808 44H441.809C442.89 44 443.766 45.081 443.766 45.957V51.9582C443.766 53.0392 442.89 53.9152 441.809 53.9152H435.808C434.727 53.9152 433.851 52.8342 433.851 51.9582V45.957C433.851 44.876 434.727 44 435.808 44Z" fill="#D2DBE5"/>
<path d="M474.426 44H480.427C481.508 44 482.384 45.081 482.384 45.957V51.9582C482.384 53.0392 481.508 53.9152 480.427 53.9152H474.426C473.345 53.9152 472.469 52.8342 472.469 51.9582V45.957C472.469 44.876 473.345 44 474.426 44Z" fill="#D2DBE5"/>
<path d="M513.04 44H519.041C520.122 44 520.998 45.081 520.998 45.957V51.9582C520.998 53.0392 520.122 53.9152 519.041 53.9152H513.04C511.959 53.9152 511.083 52.8342 511.083 51.9582V45.957C511.083 44.876 511.959 44 513.04 44Z" fill="#D2DBE5"/>
<path d="M319.957 82.6161H325.958C327.039 82.6161 327.915 83.6971 327.915 84.5731V90.5743C327.915 91.6553 327.039 92.5313 325.958 92.5313H319.957C318.876 92.5313 318 91.4503 318 90.5743V84.5731C318 83.4921 318.876 82.6161 319.957 82.6161Z" fill="#D2DBE5"/>
<path d="M358.57 82.6161H364.572C365.653 82.6161 366.529 83.6971 366.529 84.5731V90.5743C366.529 91.6553 365.653 92.5313 364.572 92.5313H358.57C357.489 92.5313 356.613 91.4503 356.613 90.5743V84.5731C356.613 83.4921 357.489 82.6161 358.57 82.6161Z" fill="#D2DBE5"/>
<path d="M397.189 82.6161H403.19C404.271 82.6161 405.147 83.6971 405.147 84.5731V90.5743C405.147 91.6553 404.271 92.5313 403.19 92.5313H397.189C396.108 92.5313 395.232 91.4503 395.232 90.5743V84.5731C395.232 83.4921 396.108 82.6161 397.189 82.6161Z" fill="#D2DBE5"/>
<path d="M435.808 82.6161H441.809C442.89 82.6161 443.766 83.6971 443.766 84.5731V90.5743C443.766 91.6553 442.89 92.5313 441.809 92.5313H435.808C434.727 92.5313 433.851 91.4503 433.851 90.5743V84.5731C433.851 83.4921 434.727 82.6161 435.808 82.6161Z" fill="#D2DBE5"/>
<path d="M474.426 82.6161H480.427C481.508 82.6161 482.384 83.6971 482.384 84.5731V90.5743C482.384 91.6553 481.508 92.5313 480.427 92.5313H474.426C473.345 92.5313 472.469 91.4503 472.469 90.5743V84.5731C472.469 83.4921 473.345 82.6161 474.426 82.6161Z" fill="#D2DBE5"/>
<path d="M513.04 82.6161H519.041C520.122 82.6161 520.998 83.6971 520.998 84.5731V90.5743C520.998 91.6553 520.122 92.5313 519.041 92.5313H513.04C511.959 92.5313 511.083 91.4503 511.083 90.5743V84.5731C511.083 83.4921 511.959 82.6161 513.04 82.6161Z" fill="#D2DBE5"/>
<path d="M319.957 121.234H325.958C327.039 121.234 327.915 122.315 327.915 123.191V129.192C327.915 130.273 327.039 131.149 325.958 131.149H319.957C318.876 131.149 318 130.068 318 129.192V123.191C318 122.11 318.876 121.234 319.957 121.234Z" fill="#D2DBE5"/>
<path d="M358.57 121.234H364.572C365.653 121.234 366.529 122.315 366.529 123.191V129.192C366.529 130.273 365.653 131.149 364.572 131.149H358.57C357.489 131.149 356.613 130.068 356.613 129.192V123.191C356.613 122.11 357.489 121.234 358.57 121.234Z" fill="#D2DBE5"/>
<path d="M397.189 121.234H403.19C404.271 121.234 405.147 122.315 405.147 123.191V129.192C405.147 130.273 404.271 131.149 403.19 131.149H397.189C396.108 131.149 395.232 130.068 395.232 129.192V123.191C395.232 122.11 396.108 121.234 397.189 121.234Z" fill="#D2DBE5"/>
<path d="M435.808 121.234H441.809C442.89 121.234 443.766 122.315 443.766 123.191V129.192C443.766 130.273 442.89 131.149 441.809 131.149H435.808C434.727 131.149 433.851 130.068 433.851 129.192V123.191C433.851 122.11 434.727 121.234 435.808 121.234Z" fill="#D2DBE5"/>
<path d="M474.426 121.234H480.427C481.508 121.234 482.384 122.315 482.384 123.191V129.192C482.384 130.273 481.508 131.149 480.427 131.149H474.426C473.345 131.149 472.469 130.068 472.469 129.192V123.191C472.469 122.11 473.345 121.234 474.426 121.234Z" fill="#D2DBE5"/>
<path d="M513.04 121.234H519.041C520.122 121.234 520.998 122.315 520.998 123.191V129.192C520.998 130.273 520.122 131.149 519.041 131.149H513.04C511.959 131.149 511.083 130.068 511.083 129.192V123.191C511.083 122.11 511.959 121.234 513.04 121.234Z" fill="#D2DBE5"/>
<path d="M319.957 159.852H325.958C327.039 159.852 327.915 160.933 327.915 161.809V167.81C327.915 168.891 327.039 169.767 325.958 169.767H319.957C318.876 169.767 318 168.686 318 167.81V161.809C318 160.728 318.876 159.852 319.957 159.852Z" fill="#D2DBE5"/>
<path d="M358.57 159.852H364.572C365.653 159.852 366.529 160.933 366.529 161.809V167.81C366.529 168.891 365.653 169.767 364.572 169.767H358.57C357.489 169.767 356.613 168.686 356.613 167.81V161.809C356.613 160.728 357.489 159.852 358.57 159.852Z" fill="#D2DBE5"/>
<path d="M397.189 159.852H403.19C404.271 159.852 405.147 160.933 405.147 161.809V167.81C405.147 168.891 404.271 169.767 403.19 169.767H397.189C396.108 169.767 395.232 168.686 395.232 167.81V161.809C395.232 160.728 396.108 159.852 397.189 159.852Z" fill="#D2DBE5"/>
<path d="M435.808 159.852H441.809C442.89 159.852 443.766 160.933 443.766 161.809V167.81C443.766 168.891 442.89 169.767 441.809 169.767H435.808C434.727 169.767 433.851 168.686 433.851 167.81V161.809C433.851 160.728 434.727 159.852 435.808 159.852Z" fill="#D2DBE5"/>
<path d="M474.426 159.852H480.427C481.508 159.852 482.384 160.933 482.384 161.809V167.81C482.384 168.891 481.508 169.767 480.427 169.767H474.426C473.345 169.767 472.469 168.686 472.469 167.81V161.809C472.469 160.728 473.345 159.852 474.426 159.852Z" fill="#D2DBE5"/>
<path d="M513.04 159.852H519.041C520.122 159.852 520.998 160.933 520.998 161.809V167.81C520.998 168.891 520.122 169.767 519.041 169.767H513.04C511.959 169.767 511.083 168.686 511.083 167.81V161.809C511.083 160.728 511.959 159.852 513.04 159.852Z" fill="#D2DBE5"/>
<path d="M319.957 198.471H325.958C327.039 198.471 327.915 199.552 327.915 200.428V206.429C327.915 207.51 327.039 208.386 325.958 208.386H319.957C318.876 208.386 318 207.305 318 206.429V200.428C318 199.347 318.876 198.471 319.957 198.471Z" fill="#D2DBE5"/>
<path d="M358.57 198.471H364.572C365.653 198.471 366.529 199.552 366.529 200.428V206.429C366.529 207.51 365.653 208.386 364.572 208.386H358.57C357.489 208.386 356.613 207.305 356.613 206.429V200.428C356.613 199.347 357.489 198.471 358.57 198.471Z" fill="#D2DBE5"/>
<path d="M397.189 198.471H403.19C404.271 198.471 405.147 199.552 405.147 200.428V206.429C405.147 207.51 404.271 208.386 403.19 208.386H397.189C396.108 208.386 395.232 207.305 395.232 206.429V200.428C395.232 199.347 396.108 198.471 397.189 198.471Z" fill="#D2DBE5"/>
<path d="M435.808 198.471H441.809C442.89 198.471 443.766 199.552 443.766 200.428V206.429C443.766 207.51 442.89 208.386 441.809 208.386H435.808C434.727 208.386 433.851 207.305 433.851 206.429V200.428C433.851 199.347 434.727 198.471 435.808 198.471Z" fill="#D2DBE5"/>
<path d="M474.426 198.471H480.427C481.508 198.471 482.384 199.552 482.384 200.428V206.429C482.384 207.51 481.508 208.386 480.427 208.386H474.426C473.345 208.386 472.469 207.305 472.469 206.429V200.428C472.469 199.347 473.345 198.471 474.426 198.471Z" fill="#D2DBE5"/>
<path d="M513.04 198.471H519.041C520.122 198.471 520.998 199.552 520.998 200.428V206.429C520.998 207.51 520.122 208.386 519.041 208.386H513.04C511.959 208.386 511.083 207.305 511.083 206.429V200.428C511.083 199.347 511.959 198.471 513.04 198.471Z" fill="#D2DBE5"/>
<path d="M319.957 237.085H325.958C327.039 237.085 327.915 238.166 327.915 239.042V245.043C327.915 246.124 327.039 247 325.958 247H319.957C318.876 247 318 245.919 318 245.043V239.042C318 237.961 318.876 237.085 319.957 237.085Z" fill="#D2DBE5"/>
<path d="M358.57 237.085H364.572C365.653 237.085 366.529 238.166 366.529 239.042V245.043C366.529 246.124 365.653 247 364.572 247H358.57C357.489 247 356.613 245.919 356.613 245.043V239.042C356.613 237.961 357.489 237.085 358.57 237.085Z" fill="#D2DBE5"/>
<path d="M397.189 237.085H403.19C404.271 237.085 405.147 238.166 405.147 239.042V245.043C405.147 246.124 404.271 247 403.19 247H397.189C396.108 247 395.232 245.919 395.232 245.043V239.042C395.232 237.961 396.108 237.085 397.189 237.085Z" fill="#D2DBE5"/>
<path d="M435.808 237.085H441.809C442.89 237.085 443.766 238.166 443.766 239.042V245.043C443.766 246.124 442.89 247 441.809 247H435.808C434.727 247 433.851 245.919 433.851 245.043V239.042C433.851 237.961 434.727 237.085 435.808 237.085Z" fill="#D2DBE5"/>
<path d="M474.426 237.085H480.427C481.508 237.085 482.384 238.166 482.384 239.042V245.043C482.384 246.124 481.508 247 480.427 247H474.426C473.345 247 472.469 245.919 472.469 245.043V239.042C472.469 237.961 473.345 237.085 474.426 237.085Z" fill="#D2DBE5"/>
<path d="M513.04 237.085H519.041C520.122 237.085 520.998 238.166 520.998 239.042V245.043C520.998 246.124 520.122 247 519.041 247H513.04C511.959 247 511.083 245.919 511.083 245.043V239.042C511.083 237.961 511.959 237.085 513.04 237.085Z" fill="#D2DBE5"/>
<path fill-rule="evenodd" clip-rule="evenodd" d="M247.678 344.241H292.806V308.783H247.678V344.241Z" fill="#071546" fill-opacity="0.95"/>
<path fill-rule="evenodd" clip-rule="evenodd" d="M320.151 356.384H221.836C217.83 356.384 214.583 353.136 214.583 349.131C214.583 345.125 217.83 341.878 221.836 341.878H320.151C324.157 341.878 327.404 345.125 327.404 349.131C327.404 353.136 324.157 356.384 320.151 356.384Z" fill="#D2DBE5"/>
<path fill-rule="evenodd" clip-rule="evenodd" d="M421.864 311.086H116.462C108.964 311.086 102.887 305.008 102.887 297.511V111.376C102.887 103.878 108.964 97.8008 116.462 97.8008H421.864C429.361 97.8008 435.439 103.878 435.439 111.376V297.511C435.439 305.008 429.361 311.086 421.864 311.086Z" fill="#D2DBE5"/>
<path fill-rule="evenodd" clip-rule="evenodd" d="M415.608 300.062H121.177C117.93 300.062 115.297 297.378 115.297 294.067V118.533C115.297 115.222 117.93 112.538 121.177 112.538H415.608C418.855 112.538 421.488 115.222 421.488 118.533V294.067C421.488 297.378 418.855 300.062 415.608 300.062Z" fill="#071546" fill-opacity="0.95"/>
<path d="M236.244 48.4128H20.7564C17.0551 48.4128 14.0547 51.4133 14.0547 55.1145V209.862C14.0547 213.563 17.0551 216.563 20.7564 216.563H236.244C239.945 216.563 242.945 213.563 242.945 209.862V55.1145C242.945 51.4133 239.945 48.4128 236.244 48.4128Z" fill="#EAF0F7"/>
<path d="M219.734 78.3127H37.2661C35.8591 78.3127 34.7184 79.4533 34.7184 80.8603V198.621C34.7184 200.028 35.8591 201.168 37.2661 201.168H219.734C221.141 201.168 222.282 200.028 222.282 198.621V80.8603C222.282 79.4533 221.141 78.3127 219.734 78.3127Z" fill="#071546"/>
<path d="M186.793 116.046H59.8398V122.009H186.793V116.046Z" fill="white"/>
<path d="M123.313 136.788H59.8364V142.751H123.313V136.788Z" fill="#FFB900"/>
<path d="M123.313 178.272H59.8364V184.234H123.313V178.272Z" fill="#EAF0F7"/>
<path d="M97.9188 95.2253H59.8328V101.188H97.9188V95.2253Z" fill="#EAF0F7"/>
<path d="M155.204 136.709H136.13V142.672H155.204V136.709Z" fill="#EAF0F7"/>
<path d="M155.053 157.53H59.8381V163.492H155.053V157.53Z" fill="white"/>
<path d="M20.1857 40.6582H236.699C240.085 40.6582 242.83 43.3461 242.83 46.6618V64.5525H14.0547V46.6618C14.0547 43.3461 16.7996 40.6582 20.1857 40.6582Z" fill="#071546"/>
<path d="M27.1597 56.8904C29.5765 56.8904 31.5357 54.9719 31.5357 52.6053C31.5357 50.2388 29.5765 48.3203 27.1597 48.3203C24.7429 48.3203 22.7837 50.2388 22.7837 52.6053C22.7837 54.9719 24.7429 56.8904 27.1597 56.8904Z" fill="#FF363C"/>
<path d="M43.5039 56.8904C45.9207 56.8904 47.8799 54.9719 47.8799 52.6053C47.8799 50.2388 45.9207 48.3203 43.5039 48.3203C41.0871 48.3203 39.1279 50.2388 39.1279 52.6053C39.1279 54.9719 41.0871 56.8904 43.5039 56.8904Z" fill="#FFBD00"/>
<path d="M59.8507 56.8904C62.2675 56.8904 64.2267 54.9719 64.2267 52.6053C64.2267 50.2388 62.2675 48.3203 59.8507 48.3203C57.4339 48.3203 55.4747 50.2388 55.4747 52.6053C55.4747 54.9719 57.4339 56.8904 59.8507 56.8904Z" fill="#3E863D"/>
<path d="M556.818 204.056H275.324C270.367 204.056 266.348 208.075 266.348 213.032V419.731C266.348 424.689 270.367 428.708 275.324 428.708H556.818C561.775 428.708 565.795 424.689 565.795 419.731V213.032C565.795 208.075 561.775 204.056 556.818 204.056Z" fill="#EAF0F7"/>
<path d="M274.369 193.695H557.623C562.053 193.695 565.644 197.286 565.644 201.716V225.618H266.348V201.716C266.348 197.286 269.939 193.695 274.369 193.695Z" fill="#071546"/>
<path d="M283.492 215.382C286.654 215.382 289.217 212.819 289.217 209.657C289.217 206.495 286.654 203.932 283.492 203.932C280.331 203.932 277.767 206.495 277.767 209.657C277.767 212.819 280.331 215.382 283.492 215.382Z" fill="#FF363C"/>
<path d="M304.875 215.382C308.037 215.382 310.6 212.819 310.6 209.657C310.6 206.495 308.037 203.932 304.875 203.932C301.713 203.932 299.15 206.495 299.15 209.657C299.15 212.819 301.713 215.382 304.875 215.382Z" fill="#FFB900"/>
<path d="M326.26 215.382C329.422 215.382 331.985 212.819 331.985 209.657C331.985 206.495 329.422 203.932 326.26 203.932C323.099 203.932 320.536 206.495 320.536 209.657C320.536 212.819 323.099 215.382 326.26 215.382Z" fill="#3E863D"/>
<path d="M549.398 246.82H341.794C338.841 246.82 336.447 249.214 336.447 252.167V401.894C336.447 404.847 338.841 407.241 341.794 407.241H549.398C552.352 407.241 554.746 404.847 554.746 401.894V252.167C554.746 249.214 552.352 246.82 549.398 246.82Z" fill="white"/>
<path d="M365.77 322.698L362.087 319.928L365.77 317.164L369.453 319.928L365.77 322.698Z" fill="white"/>
<path d="M321.167 308.348H283.168C281.83 308.348 280.745 309.432 280.745 310.771V316.743C280.745 318.081 281.83 319.166 283.168 319.166H321.167C322.505 319.166 323.59 318.081 323.59 316.743V310.771C323.59 309.432 322.505 308.348 321.167 308.348Z" fill="#3A76BB"/>
<path d="M321.204 329.175H283.131C281.814 329.175 280.745 330.243 280.745 331.561V337.28C280.745 338.597 281.814 339.666 283.131 339.666H321.204C322.522 339.666 323.59 338.597 323.59 337.28V331.561C323.59 330.243 322.522 329.175 321.204 329.175Z" fill="#3A76BB"/>
<path d="M321.204 349.578H283.131C281.814 349.578 280.745 350.646 280.745 351.964V357.683C280.745 359 281.814 360.069 283.131 360.069H321.204C322.522 360.069 323.59 359 323.59 357.683V351.964C323.59 350.646 322.522 349.578 321.204 349.578Z" fill="#3A76BB"/>
<path d="M302.168 290.682C313.981 290.682 323.557 281.105 323.557 269.293C323.557 257.48 313.981 247.903 302.168 247.903C290.355 247.903 280.779 257.48 280.779 269.293C280.779 281.105 290.355 290.682 302.168 290.682Z" fill="white"/>
<path d="M302.168 290.682C308.332 290.685 314.183 287.962 318.149 283.242C315.024 277.309 308.87 273.595 302.164 273.595C295.459 273.595 289.305 277.309 286.179 283.242C290.148 287.963 296.001 290.686 302.168 290.682Z" fill="#071546"/>
<path d="M302.281 274.446C306.724 274.446 310.326 270.844 310.326 266.401C310.326 261.959 306.724 258.357 302.281 258.357C297.839 258.357 294.237 261.959 294.237 266.401C294.237 270.844 297.839 274.446 302.281 274.446Z" fill="#071546"/>
<path d="M464.749 391.297V397.848H464.084V392.607L461.511 397.015H461.183L458.61 392.635V397.848H457.946V391.297H458.517L461.361 396.154L464.178 391.297H464.749ZM468.464 392.888C469.107 392.888 469.6 393.05 469.943 393.375C470.286 393.693 470.458 394.167 470.458 394.797V397.848H469.821V397.08C469.672 397.336 469.45 397.536 469.157 397.679C468.87 397.823 468.527 397.894 468.128 397.894C467.579 397.894 467.142 397.763 466.818 397.501C466.493 397.239 466.331 396.893 466.331 396.463C466.331 396.045 466.481 395.708 466.78 395.452C467.086 395.196 467.569 395.068 468.231 395.068H469.793V394.769C469.793 394.345 469.675 394.023 469.438 393.805C469.201 393.581 468.854 393.468 468.399 393.468C468.087 393.468 467.788 393.521 467.501 393.627C467.214 393.727 466.967 393.868 466.761 394.048L466.462 393.552C466.711 393.34 467.011 393.178 467.36 393.066C467.71 392.947 468.078 392.888 468.464 392.888ZM468.231 397.37C468.605 397.37 468.926 397.286 469.194 397.118C469.463 396.943 469.662 396.694 469.793 396.369V395.564H468.249C467.407 395.564 466.986 395.858 466.986 396.444C466.986 396.731 467.095 396.959 467.313 397.127C467.532 397.289 467.838 397.37 468.231 397.37ZM472.899 393.889C473.055 393.559 473.285 393.309 473.591 393.141C473.903 392.972 474.287 392.888 474.742 392.888V393.534L474.583 393.524C474.065 393.524 473.66 393.683 473.366 394.002C473.073 394.32 472.927 394.766 472.927 395.34V397.848H472.262V392.925H472.899V393.889Z" fill="#071546"/>
<path d="M390.646 397.904C390.271 397.904 389.925 397.823 389.607 397.661C389.289 397.498 389.03 397.267 388.83 396.968L389.242 396.5C389.604 397.037 390.075 397.305 390.655 397.305C391.466 397.305 391.871 396.825 391.871 395.864V391.896H389.476V391.297H392.554V395.836C392.554 396.522 392.392 397.04 392.068 397.389C391.75 397.732 391.276 397.904 390.646 397.904ZM396.213 392.888C396.856 392.888 397.349 393.05 397.692 393.375C398.035 393.693 398.206 394.167 398.206 394.797V397.848H397.57V397.08C397.42 397.336 397.199 397.536 396.906 397.679C396.619 397.823 396.276 397.894 395.876 397.894C395.327 397.894 394.891 397.763 394.566 397.501C394.242 397.239 394.08 396.893 394.08 396.463C394.08 396.045 394.229 395.708 394.529 395.452C394.834 395.196 395.318 395.068 395.979 395.068H397.542V394.769C397.542 394.345 397.423 394.023 397.186 393.805C396.949 393.581 396.603 393.468 396.148 393.468C395.836 393.468 395.536 393.521 395.249 393.627C394.962 393.727 394.716 393.868 394.51 394.048L394.211 393.552C394.46 393.34 394.76 393.178 395.109 393.066C395.458 392.947 395.826 392.888 396.213 392.888ZM395.979 397.37C396.353 397.37 396.675 397.286 396.943 397.118C397.211 396.943 397.411 396.694 397.542 396.369V395.564H395.998C395.156 395.564 394.735 395.858 394.735 396.444C394.735 396.731 394.844 396.959 395.062 397.127C395.28 397.289 395.586 397.37 395.979 397.37ZM402.519 392.888C403.136 392.888 403.626 393.069 403.988 393.431C404.356 393.786 404.54 394.307 404.54 394.994V397.848H403.876V395.059C403.876 394.548 403.748 394.158 403.492 393.889C403.236 393.621 402.871 393.487 402.397 393.487C401.867 393.487 401.446 393.646 401.134 393.964C400.828 394.276 400.675 394.71 400.675 395.265V397.848H400.011V392.925H400.647V393.833C400.828 393.534 401.078 393.303 401.396 393.141C401.72 392.972 402.095 392.888 402.519 392.888Z" fill="#071546"/>
<path d="M424.158 391.896V394.47H427.545V395.068H424.158V397.848H423.465V391.297H427.957V391.896H424.158ZM433.368 395.592H429.25C429.288 396.104 429.484 396.519 429.84 396.837C430.196 397.149 430.645 397.305 431.188 397.305C431.493 397.305 431.774 397.252 432.03 397.146C432.285 397.034 432.507 396.871 432.694 396.659L433.068 397.09C432.85 397.352 432.576 397.551 432.245 397.689C431.921 397.826 431.562 397.894 431.169 397.894C430.663 397.894 430.214 397.788 429.821 397.576C429.435 397.358 429.132 397.058 428.914 396.678C428.695 396.297 428.586 395.867 428.586 395.387C428.586 394.906 428.689 394.476 428.895 394.095C429.107 393.715 429.394 393.418 429.756 393.206C430.124 392.994 430.536 392.888 430.991 392.888C431.446 392.888 431.855 392.994 432.217 393.206C432.579 393.418 432.863 393.715 433.068 394.095C433.274 394.47 433.377 394.9 433.377 395.387L433.368 395.592ZM430.991 393.459C430.517 393.459 430.118 393.612 429.793 393.917C429.475 394.217 429.294 394.61 429.25 395.096H432.741C432.697 394.61 432.513 394.217 432.189 393.917C431.871 393.612 431.471 393.459 430.991 393.459ZM437.266 392.888C437.727 392.888 438.145 392.994 438.519 393.206C438.894 393.412 439.187 393.705 439.399 394.086C439.611 394.466 439.717 394.9 439.717 395.387C439.717 395.873 439.611 396.307 439.399 396.687C439.187 397.068 438.894 397.364 438.519 397.576C438.145 397.788 437.727 397.894 437.266 397.894C436.854 397.894 436.483 397.807 436.152 397.632C435.828 397.458 435.566 397.205 435.366 396.874V397.848H434.73V390.904H435.394V393.861C435.6 393.543 435.862 393.303 436.18 393.141C436.504 392.972 436.866 392.888 437.266 392.888ZM437.219 397.305C437.562 397.305 437.874 397.227 438.154 397.071C438.435 396.909 438.654 396.681 438.81 396.388C438.972 396.095 439.053 395.761 439.053 395.387C439.053 395.012 438.972 394.679 438.81 394.385C438.654 394.092 438.435 393.868 438.154 393.712C437.874 393.549 437.562 393.468 437.219 393.468C436.869 393.468 436.554 393.549 436.274 393.712C435.999 393.868 435.781 394.092 435.619 394.385C435.463 394.679 435.385 395.012 435.385 395.387C435.385 395.761 435.463 396.095 435.619 396.388C435.781 396.681 435.999 396.909 436.274 397.071C436.554 397.227 436.869 397.305 437.219 397.305Z" fill="#071546"/>
<path d="M354.322 263.659C354.733 263.797 355.048 264.002 355.267 264.277C355.491 264.551 355.604 264.882 355.604 265.269C355.604 265.649 355.501 265.983 355.295 266.27C355.089 266.551 354.793 266.769 354.406 266.925C354.025 267.075 353.576 267.15 353.058 267.15C352.272 267.15 351.655 266.981 351.205 266.644C350.756 266.308 350.532 265.849 350.532 265.269C350.532 264.876 350.638 264.545 350.85 264.277C351.068 264.002 351.383 263.797 351.795 263.659C351.458 263.528 351.202 263.341 351.028 263.098C350.853 262.848 350.766 262.555 350.766 262.218C350.766 261.688 350.971 261.267 351.383 260.955C351.801 260.643 352.36 260.487 353.058 260.487C353.52 260.487 353.922 260.559 354.265 260.702C354.615 260.839 354.886 261.039 355.08 261.301C355.273 261.563 355.37 261.869 355.37 262.218C355.37 262.555 355.279 262.848 355.098 263.098C354.917 263.341 354.658 263.528 354.322 263.659ZM351.439 262.237C351.439 262.599 351.583 262.886 351.87 263.098C352.157 263.31 352.553 263.416 353.058 263.416C353.564 263.416 353.96 263.31 354.247 263.098C354.54 262.886 354.686 262.602 354.686 262.246C354.686 261.878 354.537 261.588 354.237 261.376C353.944 261.164 353.551 261.058 353.058 261.058C352.559 261.058 352.163 261.164 351.87 261.376C351.583 261.588 351.439 261.875 351.439 262.237ZM353.058 266.579C353.638 266.579 354.091 266.46 354.415 266.223C354.746 265.986 354.911 265.665 354.911 265.259C354.911 264.854 354.746 264.536 354.415 264.305C354.091 264.068 353.638 263.949 353.058 263.949C352.484 263.949 352.032 264.068 351.701 264.305C351.377 264.536 351.215 264.854 351.215 265.259C351.215 265.671 351.377 265.996 351.701 266.233C352.026 266.463 352.478 266.579 353.058 266.579ZM359.147 267.15C358.642 267.15 358.19 267.016 357.79 266.747C357.397 266.479 357.089 266.095 356.864 265.596C356.646 265.091 356.536 264.498 356.536 263.818C356.536 263.138 356.646 262.549 356.864 262.05C357.089 261.544 357.397 261.158 357.79 260.889C358.19 260.621 358.642 260.487 359.147 260.487C359.653 260.487 360.102 260.621 360.495 260.889C360.894 261.158 361.206 261.544 361.431 262.05C361.655 262.549 361.767 263.138 361.767 263.818C361.767 264.498 361.655 265.091 361.431 265.596C361.206 266.095 360.894 266.479 360.495 266.747C360.102 267.016 359.653 267.15 359.147 267.15ZM359.147 266.532C359.528 266.532 359.862 266.426 360.149 266.214C360.442 266.002 360.669 265.693 360.832 265.288C360.994 264.882 361.075 264.392 361.075 263.818C361.075 263.244 360.994 262.755 360.832 262.349C360.669 261.944 360.442 261.635 360.149 261.423C359.862 261.211 359.528 261.105 359.147 261.105C358.767 261.105 358.43 261.211 358.137 261.423C357.85 261.635 357.625 261.944 357.463 262.349C357.301 262.755 357.22 263.244 357.22 263.818C357.22 264.392 357.301 264.882 357.463 265.288C357.625 265.693 357.85 266.002 358.137 266.214C358.43 266.426 358.767 266.532 359.147 266.532Z" fill="#071546"/>
<path d="M353.283 289.992C353.713 289.992 354.094 290.073 354.424 290.236C354.761 290.398 355.023 290.629 355.211 290.928C355.398 291.221 355.491 291.564 355.491 291.958C355.491 292.357 355.395 292.709 355.201 293.015C355.008 293.321 354.74 293.558 354.396 293.726C354.06 293.888 353.679 293.969 353.255 293.969C352.388 293.969 351.723 293.686 351.262 293.118C350.8 292.544 350.569 291.736 350.569 290.694C350.569 289.964 350.694 289.347 350.943 288.841C351.193 288.336 351.542 287.956 351.991 287.7C352.441 287.438 352.965 287.307 353.564 287.307C354.212 287.307 354.73 287.425 355.117 287.662L354.846 288.205C354.534 287.999 354.109 287.896 353.573 287.896C352.849 287.896 352.282 288.127 351.87 288.589C351.458 289.044 351.252 289.709 351.252 290.582C351.252 290.738 351.262 290.916 351.28 291.115C351.442 290.76 351.701 290.485 352.057 290.292C352.413 290.092 352.821 289.992 353.283 289.992ZM353.227 293.399C353.701 293.399 354.084 293.271 354.378 293.015C354.677 292.753 354.827 292.407 354.827 291.976C354.827 291.546 354.677 291.203 354.378 290.947C354.084 290.691 353.685 290.563 353.18 290.563C352.849 290.563 352.556 290.626 352.3 290.75C352.051 290.875 351.854 291.047 351.711 291.265C351.567 291.483 351.496 291.727 351.496 291.995C351.496 292.244 351.561 292.475 351.692 292.687C351.829 292.9 352.029 293.071 352.291 293.202C352.553 293.333 352.865 293.399 353.227 293.399ZM358.882 293.969C358.377 293.969 357.925 293.835 357.525 293.567C357.132 293.299 356.824 292.915 356.599 292.416C356.381 291.911 356.271 291.318 356.271 290.638C356.271 289.958 356.381 289.369 356.599 288.869C356.824 288.364 357.132 287.977 357.525 287.709C357.925 287.441 358.377 287.307 358.882 287.307C359.388 287.307 359.837 287.441 360.23 287.709C360.629 287.977 360.941 288.364 361.166 288.869C361.39 289.369 361.502 289.958 361.502 290.638C361.502 291.318 361.39 291.911 361.166 292.416C360.941 292.915 360.629 293.299 360.23 293.567C359.837 293.835 359.388 293.969 358.882 293.969ZM358.882 293.352C359.263 293.352 359.597 293.246 359.884 293.034C360.177 292.822 360.404 292.513 360.567 292.107C360.729 291.702 360.81 291.212 360.81 290.638C360.81 290.064 360.729 289.574 360.567 289.169C360.404 288.763 360.177 288.455 359.884 288.242C359.597 288.03 359.263 287.924 358.882 287.924C358.502 287.924 358.165 288.03 357.872 288.242C357.585 288.455 357.36 288.763 357.198 289.169C357.036 289.574 356.955 290.064 356.955 290.638C356.955 291.212 357.036 291.702 357.198 292.107C357.36 292.513 357.585 292.822 357.872 293.034C358.165 293.246 358.502 293.352 358.882 293.352Z" fill="#071546"/>
<path d="M355.042 346.958V347.556H350.447V347.079L353.171 344.412C353.514 344.075 353.744 343.785 353.863 343.542C353.988 343.292 354.05 343.043 354.05 342.793C354.05 342.407 353.916 342.107 353.648 341.895C353.386 341.677 353.008 341.568 352.515 341.568C351.748 341.568 351.152 341.811 350.728 342.297L350.251 341.886C350.507 341.586 350.831 341.355 351.224 341.193C351.623 341.031 352.073 340.95 352.572 340.95C353.239 340.95 353.766 341.109 354.153 341.427C354.546 341.739 354.743 342.17 354.743 342.719C354.743 343.055 354.668 343.38 354.518 343.692C354.368 344.004 354.084 344.362 353.666 344.768L351.439 346.958H355.042ZM358.462 347.613C357.957 347.613 357.504 347.478 357.105 347.21C356.712 346.942 356.403 346.558 356.179 346.059C355.96 345.554 355.851 344.961 355.851 344.281C355.851 343.601 355.96 343.012 356.179 342.513C356.403 342.007 356.712 341.621 357.105 341.352C357.504 341.084 357.957 340.95 358.462 340.95C358.967 340.95 359.416 341.084 359.809 341.352C360.209 341.621 360.521 342.007 360.745 342.513C360.97 343.012 361.082 343.601 361.082 344.281C361.082 344.961 360.97 345.554 360.745 346.059C360.521 346.558 360.209 346.942 359.809 347.21C359.416 347.478 358.967 347.613 358.462 347.613ZM358.462 346.995C358.842 346.995 359.176 346.889 359.463 346.677C359.756 346.465 359.984 346.156 360.146 345.75C360.308 345.345 360.39 344.855 360.39 344.281C360.39 343.707 360.308 343.218 360.146 342.812C359.984 342.407 359.756 342.098 359.463 341.886C359.176 341.674 358.842 341.568 358.462 341.568C358.081 341.568 357.744 341.674 357.451 341.886C357.164 342.098 356.94 342.407 356.777 342.812C356.615 343.218 356.534 343.707 356.534 344.281C356.534 344.855 356.615 345.345 356.777 345.75C356.94 346.156 357.164 346.465 357.451 346.677C357.744 346.889 358.081 346.995 358.462 346.995Z" fill="#071546"/>
<path d="M353.18 374.436C352.675 374.436 352.222 374.302 351.823 374.033C351.43 373.765 351.121 373.381 350.897 372.882C350.678 372.377 350.569 371.784 350.569 371.104C350.569 370.424 350.678 369.835 350.897 369.336C351.121 368.83 351.43 368.444 351.823 368.175C352.222 367.907 352.675 367.773 353.18 367.773C353.685 367.773 354.134 367.907 354.527 368.175C354.927 368.444 355.239 368.83 355.463 369.336C355.688 369.835 355.8 370.424 355.8 371.104C355.8 371.784 355.688 372.377 355.463 372.882C355.239 373.381 354.927 373.765 354.527 374.033C354.134 374.302 353.685 374.436 353.18 374.436ZM353.18 373.818C353.56 373.818 353.894 373.712 354.181 373.5C354.474 373.288 354.702 372.979 354.864 372.573C355.026 372.168 355.108 371.678 355.108 371.104C355.108 370.53 355.026 370.041 354.864 369.635C354.702 369.23 354.474 368.921 354.181 368.709C353.894 368.497 353.56 368.391 353.18 368.391C352.799 368.391 352.462 368.497 352.169 368.709C351.882 368.921 351.658 369.23 351.496 369.635C351.333 370.041 351.252 370.53 351.252 371.104C351.252 371.678 351.333 372.168 351.496 372.573C351.658 372.979 351.882 373.288 352.169 373.5C352.462 373.712 352.799 373.818 353.18 373.818Z" fill="#071546"/>
<path d="M356.137 319.015H354.827V320.736H354.153V319.015H350.457V318.528L353.929 314.186H354.677L351.327 318.416H354.172V316.9H354.827V318.416H356.137V319.015ZM359.367 320.792C358.861 320.792 358.409 320.658 358.01 320.39C357.617 320.122 357.308 319.738 357.083 319.239C356.865 318.734 356.756 318.141 356.756 317.461C356.756 316.781 356.865 316.192 357.083 315.693C357.308 315.187 357.617 314.8 358.01 314.532C358.409 314.264 358.861 314.13 359.367 314.13C359.872 314.13 360.321 314.264 360.714 314.532C361.113 314.8 361.425 315.187 361.65 315.693C361.874 316.192 361.987 316.781 361.987 317.461C361.987 318.141 361.874 318.734 361.65 319.239C361.425 319.738 361.113 320.122 360.714 320.39C360.321 320.658 359.872 320.792 359.367 320.792ZM359.367 320.175C359.747 320.175 360.081 320.069 360.368 319.857C360.661 319.645 360.889 319.336 361.051 318.93C361.213 318.525 361.294 318.035 361.294 317.461C361.294 316.887 361.213 316.397 361.051 315.992C360.889 315.586 360.661 315.278 360.368 315.066C360.081 314.853 359.747 314.747 359.367 314.747C358.986 314.747 358.649 314.853 358.356 315.066C358.069 315.278 357.844 315.586 357.682 315.992C357.52 316.397 357.439 316.887 357.439 317.461C357.439 318.035 357.52 318.525 357.682 318.93C357.844 319.336 358.069 319.645 358.356 319.857C358.649 320.069 358.986 320.175 359.367 320.175Z" fill="#071546"/>
<path d="M497.245 396.098H493.596L492.81 397.848H492.089L495.083 391.297H495.767L498.761 397.848H498.031L497.245 396.098ZM496.992 395.536L495.42 392.018L493.848 395.536H496.992ZM502.24 392.888C502.702 392.888 503.12 392.994 503.494 393.206C503.868 393.412 504.162 393.705 504.374 394.086C504.586 394.466 504.692 394.9 504.692 395.387C504.692 395.879 504.586 396.316 504.374 396.697C504.162 397.077 503.868 397.374 503.494 397.586C503.126 397.792 502.708 397.894 502.24 397.894C501.841 397.894 501.479 397.813 501.155 397.651C500.837 397.483 500.575 397.239 500.369 396.921V399.663H499.704V392.925H500.341V393.899C500.54 393.574 500.802 393.325 501.127 393.15C501.457 392.975 501.829 392.888 502.24 392.888ZM502.193 397.305C502.537 397.305 502.848 397.227 503.129 397.071C503.41 396.909 503.628 396.681 503.784 396.388C503.946 396.095 504.028 395.761 504.028 395.387C504.028 395.012 503.946 394.682 503.784 394.395C503.628 394.101 503.41 393.874 503.129 393.712C502.848 393.549 502.537 393.468 502.193 393.468C501.844 393.468 501.529 393.549 501.248 393.712C500.974 393.874 500.755 394.101 500.593 394.395C500.437 394.682 500.359 395.012 500.359 395.387C500.359 395.761 500.437 396.095 500.593 396.388C500.755 396.681 500.974 396.909 501.248 397.071C501.529 397.227 501.844 397.305 502.193 397.305ZM506.683 393.889C506.839 393.559 507.069 393.309 507.375 393.141C507.687 392.972 508.071 392.888 508.526 392.888V393.534L508.367 393.524C507.849 393.524 507.444 393.683 507.151 394.002C506.857 394.32 506.711 394.766 506.711 395.34V397.848H506.046V392.925H506.683V393.889Z" fill="#071546"/>
<path d="M533.71 391.297V397.848H533.045V392.607L530.472 397.015H530.144L527.571 392.635V397.848H526.907V391.297H527.477L530.322 396.154L533.139 391.297H533.71ZM537.425 392.888C538.068 392.888 538.561 393.05 538.904 393.375C539.247 393.693 539.419 394.167 539.419 394.797V397.848H538.782V397.08C538.633 397.336 538.411 397.536 538.118 397.679C537.831 397.823 537.488 397.894 537.089 397.894C536.54 397.894 536.103 397.763 535.778 397.501C535.454 397.239 535.292 396.893 535.292 396.463C535.292 396.045 535.442 395.708 535.741 395.452C536.047 395.196 536.53 395.068 537.191 395.068H538.754V394.769C538.754 394.345 538.636 394.023 538.399 393.805C538.162 393.581 537.815 393.468 537.36 393.468C537.048 393.468 536.749 393.521 536.462 393.627C536.175 393.727 535.928 393.868 535.722 394.048L535.423 393.552C535.672 393.34 535.972 393.178 536.321 393.066C536.671 392.947 537.039 392.888 537.425 392.888ZM537.191 397.37C537.566 397.37 537.887 397.286 538.155 397.118C538.424 396.943 538.623 396.694 538.754 396.369V395.564H537.21C536.368 395.564 535.947 395.858 535.947 396.444C535.947 396.731 536.056 396.959 536.274 397.127C536.493 397.289 536.798 397.37 537.191 397.37ZM545.268 392.925L542.807 398.437C542.607 398.899 542.376 399.226 542.114 399.42C541.852 399.613 541.537 399.71 541.169 399.71C540.932 399.71 540.711 399.672 540.505 399.598C540.299 399.523 540.121 399.41 539.971 399.261L540.28 398.765C540.53 399.014 540.829 399.139 541.179 399.139C541.403 399.139 541.593 399.077 541.749 398.952C541.912 398.827 542.061 398.615 542.199 398.316L542.414 397.838L540.215 392.925H540.907L542.76 397.108L544.613 392.925H545.268Z" fill="#071546"/>
<path d="M373.214 246.512C373.724 246.512 374.141 246.909 374.172 247.411L374.174 247.472V406.81C374.174 407.34 373.744 407.77 373.214 407.77C372.705 407.77 372.288 407.373 372.256 406.871L372.254 406.81V247.472C372.254 246.942 372.684 246.512 373.214 246.512Z" fill="#D2DBE5"/>
<path d="M431.638 303.308C432.227 302.808 433.111 302.912 433.57 303.521L433.613 303.581L471.248 359.587L500.772 338.99C500.954 338.863 501.165 338.784 501.385 338.759L501.468 338.752L539.333 336.79C540.071 336.752 540.699 337.319 540.737 338.056C540.774 338.769 540.245 339.381 539.542 339.455L539.472 339.46L501.988 341.402L471.662 362.559C471.07 362.972 470.261 362.838 469.831 362.269L469.788 362.208L432.229 306.315L388.202 343.739C387.659 344.201 386.854 344.153 386.368 343.643L386.318 343.586C385.856 343.043 385.904 342.238 386.414 341.753L386.47 341.702L431.638 303.308Z" fill="#2AB398"/>
<path d="M534.117 269.704C534.53 269.092 535.361 268.931 535.973 269.344C536.565 269.744 536.735 270.534 536.372 271.139L536.333 271.2L502.645 321.074C502.174 321.771 501.188 321.861 500.599 321.277L500.546 321.223L461.441 278.024L434.003 296.404C433.802 296.539 433.569 296.616 433.328 296.629L433.238 296.63L386.903 295.878C386.165 295.866 385.577 295.258 385.588 294.52C385.6 293.806 386.17 293.231 386.876 293.206L386.947 293.205L432.862 293.95L460.913 275.16C461.443 274.804 462.148 274.876 462.597 275.321L462.648 275.374L501.384 318.164L534.117 269.704Z" fill="#FFB900"/>
<path d="M476.043 301.737C476.367 301.456 476.805 301.348 477.22 301.444L477.297 301.464L502.191 308.795L538.779 303.007C539.485 302.895 540.149 303.358 540.296 304.048L540.308 304.118C540.42 304.824 539.958 305.488 539.267 305.635L539.197 305.648L502.311 311.483C502.143 311.509 501.972 311.504 501.806 311.466L501.724 311.445L477.244 304.235L435.229 340.719C434.805 341.086 434.2 341.149 433.712 340.883L433.647 340.845L383.964 309.981C383.337 309.592 383.144 308.767 383.534 308.14C383.91 307.534 384.693 307.334 385.311 307.673L385.375 307.71L434.22 338.054L476.043 301.737Z" fill="#3A76BB"/>
</svg>
