<svg id="Layer_2" data-name="Layer 2" xmlns="http://www.w3.org/2000/svg" viewBox="0 0 157.5 37.96"><defs><style>.cls-1{fill:#f7931e;}.cls-2{fill:#5d3991;}</style></defs><path d="M891.53,533.17h-7c-.29.72-.49,1.47-.74,2.14a2.38,2.38,0,0,1-2.35,1.88,2,2,0,0,1-2.08-2.25,4.11,4.11,0,0,1,.16-.93l5.77-17a2.77,2.77,0,0,1,5.33,0c6.09,17.27,6.16,17.62,6.16,17.92a2,2,0,0,1-2.15,2.23,2.11,2.11,0,0,1-2.13-1.44ZM886,528.53h3.89c-.71-2.23-.94-2.6-1.9-5.64Z" transform="translate(-825.5 -513.29)"/><path d="M902.63,517.46c0-1.65.72-2.48,2.17-2.48a2.84,2.84,0,0,1,2.42,1.51l7.57,11.67V517.32c0-1.55.72-2.32,2.17-2.32s2.24.77,2.24,2.32v17.39c0,1.64-.74,2.48-2.22,2.48a2.69,2.69,0,0,1-2.3-1.35L907,524.22v10.63c0,1.55-.74,2.34-2.19,2.34s-2.2-.79-2.2-2.34Z" transform="translate(-825.5 -513.29)"/><path d="M940.49,530.69a2.1,2.1,0,0,1,2.22,2.3,2.59,2.59,0,0,1-.83,2,9,9,0,0,1-6.29,2.55c-6.65,0-9.94-5.73-9.94-11.51s3.38-11.67,10.07-11.67a8.73,8.73,0,0,1,6.29,2.48,2.68,2.68,0,0,1,.85,1.93,2.17,2.17,0,0,1-2.17,2.37,2.39,2.39,0,0,1-1.68-.68,4.63,4.63,0,0,0-3.36-1.34c-3.62,0-5.39,3.36-5.39,6.75s1.83,6.75,5.42,6.75a4.33,4.33,0,0,0,3.31-1.23A1.87,1.87,0,0,1,940.49,530.69Z" transform="translate(-825.5 -513.29)"/><path d="M949.69,517.51c0-1.65.76-2.49,2.3-2.49h7.75c1.52,0,2.22.72,2.22,2.3a2,2,0,0,1-2.22,2.28h-5.66v3.85h4.43c1.46,0,2.19.77,2.19,2.3a2,2,0,0,1-2.19,2.27h-4.43v4.6h5.86c1.59,0,2.38.76,2.38,2.29s-.79,2.28-2.38,2.28h-8c-2,0-2.3-.53-2.3-2.51Z" transform="translate(-825.5 -513.29)"/><path d="M967.64,517.37c0-1.65.92-2.37,2.71-2.37h5.49c4.61,0,7.16,3.23,7.16,6.64a6.94,6.94,0,0,1-3.22,5.85l2.66,6.06a4,4,0,0,1,.36,1.46,2,2,0,0,1-2.11,2.2,2,2,0,0,1-2-1.25l-3.47-7.29H972v6c0,1.67-.72,2.51-2.17,2.51s-2.22-.84-2.22-2.51Zm4.39,2.18v4.57h4a2.47,2.47,0,0,0,2.49-2.48c0-1-.76-2.09-2.49-2.09Z" transform="translate(-825.5 -513.29)"/><path d="M896.71,543.65a1.74,1.74,0,0,1,1.73,1.72v4.21a.1.1,0,0,1-.11.11h-.39c-.08,0-.12,0-.12-.11v-2.27h-2.23v2.27c0,.08,0,.11-.11.11h-.39a.1.1,0,0,1-.11-.11v-4.21a1.63,1.63,0,0,1,.51-1.21A1.65,1.65,0,0,1,896.71,543.65Zm1.11,3v-1.32a1.1,1.1,0,0,0-.32-.78,1.12,1.12,0,0,0-1.91.78v1.32Z" transform="translate(-825.5 -513.29)"/><path d="M914.59,545.68a.1.1,0,0,1-.11-.11v-.2a1.05,1.05,0,0,0-.33-.78,1.07,1.07,0,0,0-.79-.33,1.11,1.11,0,0,0-.79.33,1.08,1.08,0,0,0-.32.78V548a1.11,1.11,0,0,0,1.11,1.12,1.13,1.13,0,0,0,1.12-1.12v-.65h-1.25a.11.11,0,0,1-.12-.12v-.39c0-.08,0-.11.12-.11h1.29a.51.51,0,0,1,.4.17.53.53,0,0,1,.17.41V548a1.67,1.67,0,0,1-.5,1.23,1.75,1.75,0,0,1-2.45,0,1.68,1.68,0,0,1-.51-1.23v-2.59a1.73,1.73,0,1,1,3.46,0v.2a.1.1,0,0,1-.11.11Z" transform="translate(-825.5 -513.29)"/><path d="M931.68,549.08a.1.1,0,0,1,.11.11v.39a.1.1,0,0,1-.11.11h-2.82a.55.55,0,0,1-.4-.16.54.54,0,0,1-.17-.41v-4.89a.52.52,0,0,1,.17-.41.53.53,0,0,1,.4-.18h2.73c.07,0,.11,0,.11.12v.39a.1.1,0,0,1-.11.11h-2.68v2h2.4a.1.1,0,0,1,.11.11v.39a.1.1,0,0,1-.11.11h-2.4v2.17Z" transform="translate(-825.5 -513.29)"/><path d="M948.64,549.56l-3-4.59v4.61a.1.1,0,0,1-.11.11h-.39c-.08,0-.11,0-.11-.11V544a.27.27,0,0,1,.21-.29l.11,0a.28.28,0,0,1,.24.14l3,4.59v-4.61c0-.08,0-.12.11-.12h.39a.11.11,0,0,1,.12.12v5.63a.28.28,0,0,1-.22.29h-.09A.29.29,0,0,1,948.64,549.56Z" transform="translate(-825.5 -513.29)"/><path d="M962.91,549.19a1.68,1.68,0,0,1-.51-1.23v-2.58a1.68,1.68,0,0,1,.51-1.23,1.71,1.71,0,0,1,2.44,0,1.68,1.68,0,0,1,.51,1.23v.19c0,.07,0,.11-.12.11h-.39a.1.1,0,0,1-.11-.11v-.19a1.09,1.09,0,0,0-.32-.79,1.11,1.11,0,0,0-1.58,0,1.06,1.06,0,0,0-.33.79V548a1.06,1.06,0,0,0,.33.79,1.11,1.11,0,0,0,1.58,0,1.09,1.09,0,0,0,.32-.79v-.19a.1.1,0,0,1,.11-.11h.39c.08,0,.12,0,.12.11V548a1.68,1.68,0,0,1-.51,1.23,1.7,1.7,0,0,1-1.22.5A1.67,1.67,0,0,1,962.91,549.19Z" transform="translate(-825.5 -513.29)"/><path d="M982.4,543.64c.07,0,.11,0,.11.12V548a1.72,1.72,0,0,1-1.73,1.73,1.76,1.76,0,0,1-1-.29,1.74,1.74,0,0,1-.63-.81l-.07-.18a.09.09,0,0,1,0,0,.09.09,0,0,1,.07-.09l.36-.15h.06a.11.11,0,0,1,.09.07l.07.19a1,1,0,0,0,.41.51,1.1,1.1,0,0,0,.63.2,1,1,0,0,0,.78-.33,1.06,1.06,0,0,0,.33-.79v-.85a1.68,1.68,0,0,1-1.11.41h-.34a1.4,1.4,0,0,1-1.39-1.39v-2.37c0-.08,0-.12.11-.12h.39c.08,0,.11,0,.11.12v2.37a.78.78,0,0,0,.23.55.75.75,0,0,0,.55.22h.34a1,1,0,0,0,.78-.32,1.07,1.07,0,0,0,.33-.79v-2c0-.08,0-.12.11-.12Z" transform="translate(-825.5 -513.29)"/><path class="cls-1" d="M828.52,529.09a3,3,0,0,1-3-3v-9.74a3,3,0,1,1,6,0v9.74A3,3,0,0,1,828.52,529.09Z" transform="translate(-825.5 -513.29)"/><path class="cls-1" d="M844.77,529.09a3,3,0,0,1-3-3v-9.74a3,3,0,1,1,6,0v9.74A3,3,0,0,1,844.77,529.09Z" transform="translate(-825.5 -513.29)"/><path class="cls-1" d="M825.54,525c0-2.22,1-3.22,3-3.22s3,1,3,3.22v14c0,4.65,2.49,6,5.31,6s4.85-1.28,4.85-6V525c0-2.22,1-3.22,3-3.22s3,1,3,3.22v14.28c0,8.92-5.22,12-11.27,12s-11-3.1-11-12Z" transform="translate(-825.5 -513.29)"/><path class="cls-2" d="M869.28,534.23h-4.87a2.34,2.34,0,0,1,0-4.67h4.87a2.34,2.34,0,1,1,0,4.67Z" transform="translate(-825.5 -513.29)"/><path class="cls-2" d="M869.86,534.23a2.34,2.34,0,0,1-.22-4.66c2-.2,3.67-2.71,3.74-5.61s-1.65-5.79-3.75-6a2.34,2.34,0,0,1,.47-4.66c4.59.47,8.08,5.2,7.95,10.77-.13,5.35-3.54,9.71-7.95,10.15Z" transform="translate(-825.5 -513.29)"/><path class="cls-2" d="M852.76,548.84h0a2.32,2.32,0,0,1-2.31-2.36l.19-19.83a5,5,0,0,1,5-4.84h0l11,.07a2.34,2.34,0,1,1,0,4.67h0l-11-.07a.29.29,0,0,0-.28.27l-.19,19.78A2.34,2.34,0,0,1,852.76,548.84Z" transform="translate(-825.5 -513.29)"/><path class="cls-2" d="M888.86,549.62h-36a2.34,2.34,0,1,1,0-4.67h36a2.34,2.34,0,1,1,0,4.67Z" transform="translate(-825.5 -513.29)"/><path class="cls-2" d="M869.48,518H856.82a2.34,2.34,0,0,1,0-4.68h12.66a2.34,2.34,0,1,1,0,4.68Z" transform="translate(-825.5 -513.29)"/></svg>